# xmcd
#
# Track frame offsets:
#	150
#	11928
#	27753
#	42981
#	59290
#	67709
#	82137
#	98490
#	113178
#	131434
#	146769
#	155573
#	167696
#	184528
#	199347
#	211040
#	225271
#	237191
#	252513
#	265950
#	280215
#	296231
#	309883
#
# Disc length: 4292 seconds
#
# Revision: 1
# Processed by: cddbd v1.5.2PL0 Copyright (c) Steve Scherf et al.
# Submitted via: audiograbber 1.83.01
#
DISCID=4210c217
DTITLE=Various Artist - Bluegrass swiss made
DYEAR=2008
DGENRE=Bluegrass
TTITLE0=Bluegrass Familiy - Lonesome Road Blues
TTITLE1=Bluegrass Familiy - Kentucky Borderline
TTITLE2=Misty Blue - In The Pines
TTITLE3=Timbertrain - Lay Down Sally
TTITLE4=Timbertrain - Old Joe Clark
TTITLE5=Gumboot Rednex - Mary Have Mercy
TTITLE6=Blue Lizard - Look Down That Lonesome Road
TTITLE7=Moon Fire - All The Miles
TTITLE8=Sunny Mountain Grass - Perucho
TTITLE9=Sunny Mountain Grass - Rose Of My Heart
TTITLE10=Seagulls - Crossing The Transippi
TTITLE11=Country Ramblers - Midnight Flyer
TTITLE12=Blue Valley Drifters - Stand By Me
TTITLE13=Big Stone - Wait For The Wagon
TTITLE14=Bluegrass Beans - Sweet Sally Brown
TTITLE15=Bluegrass Beans - Rank Stranger
TTITLE16=Tabea and Blue Sky - Last Hard Bible
TTITLE17=Morning Dew - Horseshoe Bend
TTITLE18=Rosewood Delight - From Both Sides Now
TTITLE19=Rosewood Delight - Walk Softly On This Heart Of Mine
TTITLE20=Wäfler Brothers - Diggy Diggy Lo
TTITLE21=The Challenge - Snowflakes In The Wind
TTITLE22=The Challenge - Sophronie
EXTD=
EXTT0=
EXTT1=
EXTT2=
EXTT3=
EXTT4=
EXTT5=
EXTT6=
EXTT7=
EXTT8=
EXTT9=
EXTT10=
EXTT11=
EXTT12=
EXTT13=
EXTT14=
EXTT15=
EXTT16=
EXTT17=
EXTT18=
EXTT19=
EXTT20=
EXTT21=
EXTT22=
PLAYORDER=
